<mxfile host="65bd71144e">
    <diagram name="Page-1" id="IU16oSFaRp-vqko16Wd2">
        <mxGraphModel dx="868" dy="1120" grid="1" gridSize="10" guides="1" tooltips="1" connect="1" arrows="1" fold="1" page="0" pageScale="1" pageWidth="827" pageHeight="1169" math="0" shadow="0">
            <root>
                <mxCell id="0"/>
                <mxCell id="1" parent="0"/>
                <mxCell id="12" style="edgeStyle=orthogonalEdgeStyle;rounded=0;orthogonalLoop=1;jettySize=auto;html=1;fontColor=#000000;" parent="1" source="17" target="18" edge="1">
                    <mxGeometry relative="1" as="geometry"/>
                </mxCell>
                <mxCell id="13" style="edgeStyle=orthogonalEdgeStyle;rounded=0;orthogonalLoop=1;jettySize=auto;html=1;fontColor=#000000;" parent="1" source="14" target="18" edge="1">
                    <mxGeometry relative="1" as="geometry"/>
                </mxCell>
                <mxCell id="22" style="edgeStyle=none;html=1;" parent="1" source="14" target="20" edge="1">
                    <mxGeometry relative="1" as="geometry"/>
                </mxCell>
                <mxCell id="14" value="Terraform" style="shape=image;verticalLabelPosition=bottom;verticalAlign=top;imageAspect=0;image=data:image/png,iVBORw0KGgoAAAANSUhEUgAAAHAAAACACAYAAADTcu1SAAAAAXNSR0IArs4c6QAADitJREFUeAHtnX1UlFUex5/7PDOAoiWnRGbo5G6FL7XV4lqnrFZAT6booOxOLyuD7FZmdbT3jlu5S55t/SM37XjWNirFGWpLVmEGNLUEcteOWcZmbyrlZh1mSDCtFAVmnrvfB7nwMIHAvD3PzNw5B+597jNz7+9+P3Nfnvs2gi3PveUPlubxAn9FpQIipXRWB+n4uGCu+28Lrd+dH5W5iGOjRSXvgGgUZPrw6bYzDTaL++7iYtoZHse6RE3We4GiAh2Nv5Iv6t37bPM8U6MmF3FsaC+A3TpQ4ZfUJ9ehNG68M989tjuce3SnQN8Au8xEabS2e+mBAot7uc3WlKw767lBwjkBKvpQQUjC/2XC976DADkf7SXhuulHAVJgaQSjIb32GAziktLNpveH9Cn+5rAoMGAJ7CPV67xe+h5KY+nC/GZTH/d5UAQVCAQgzFOqUbqg1ddxqDDPvXTxYpoYQZt5UioFAgTYFQOlI2RKVxw/4vkMIOep4uXeCCkQSBvYr2koljUSkR4sdaZ93O+b+I2QKhBcCfQzBb2hHK8g1xfkNf69cN4PF/jd5pdhUCCkADvto1TCs8d9su/HBgyUL8GwnCEMdvMouxQIPcAeaVPwzPj8l/We/QA5oyeY+0KpQDgBdtoJiBPxt81maawq+s3RjFAaz+MSBh6JCZVIaB9ne70dnxTmNT67eP6x80IVb7zHE/YS2EtgKiTIVHj0xMm2Bjx23MWnrXqpE9BFZAF2mYgqNRXPjy99We/+oCjPfVNAlvMPdSqgCUCmPaVCppfSXba8xtcLre6LWTh3B6+ALrr4AHmb0C6kwuycwZvO36kooGkJVCNAJ4dPU6kFGaRfNwD97cVqgMlYLWf2D+fXZxVAP4Lk5FTN0S1AFMcbOoTO2Y4nioooJpX5iymQk1M9JTu7ai+anjW6BagYiyUdyeitPuM77vncNs+dzzIQr+7MmVsvArgyWZZ3Q4PJig666MQMBATVxc8En7CpIM9dJ4jSg2UVYz4a6DOxdN9qfXdYS8t3j54541sKLYar86brEqg2tNNPaZYg+/ZhbPWFhXe4L/zJ/RgMQHVpbWk5doBSebk/PCW70QVQsRizHcjIotOttKHQ4n5g4UIsSo7B1/TpWzOzsqp2obrciPz2+4wcfQC7YKEBHyULdPXpJs/+wrmembHC8Oabt6einSvx+bwf4Ns64ChVVLSB54KDjs4EKtOtaB+3JFDjI+tcow+e6/16vWe1fprQ3Py/xR0d7X9CiRv0YH/UlsCfgKA0N1o36WRnV+c2Nx/+RBDklUOBp2gQOwCRGWQ+qjbpTJ9ePRHV5XZ0UKphfUBzpTEFkJVKVKu63qSTm1udglGU1Vhfux9fupuZ3YG4MQmwWwidbdKxWqmEx4J7W1vlBlmmD6DUBd0HiW2AXST1sEknJ2drTnNzdT0eC9aiBx2yFXtxAVDhiNkOTTbpoJ27BM9zm2XZuxNWXNldO4TIEzcAmV4AmQ4hywrnuncX5XuuYeGhdq3W2hEAt8Lno58hvbCtWo87gAwUqrHrw7FJB50SkpVVvaC5+eQhgFPGLsO6byRuAZ4FGdpNOtOmVV2PZ7r38DxXCngR2bkV5wC7ymOQm3TwSJCuTPP4fAKmeWjYqmVWe6hdkQjkXqxmaFEHxq+fXoL5x81YhLyzKK9pwA5HUVFtEkrcMlTHh1BVzge8iC8LER0u8z8M4rAMQSTPA6Q3fuH15BwdnQE36SjTPEeOnOx3mqcntvD6OqvQ0sqUE2WV5geJJFxFCNke3iSjJHbVJp3f57snqa1G79LVNc0zVh2uhb9XG+ioMH/ucJpvESVpDoxp0MIgHaaZ0iELvebjCBGu1oudvQAyo+wVadXD08xXCER8DNXqDyycu/pToE+AipklJaSjzGlaSSQxAx2dV1C1yvozn1vUL0AmjaMi7Sg6OncRapgsEPJvFs5dfSgwIEBmpt2VWl/mNP9aJNLtKJFfs3DuaqvAoAEyM+3OtDcuTDRNwFxwMUC2snDuaqPAkAEqZq4qJ6fLXKanDSRxAnpkr2tjOk9VUSAggEy69c4LvnE40++QDMKN6OTsY+HcjZwCQQFkZm7YnL770kzTtaIg3YnHjm9ZOHfDr0BIACpmFhcT2e5KW5cyMnEcNoo9i7/28JvPUwgZQCblmlcv+KHMmf64kGC8Au1jFQvnbngUCDlAZmZZeeoXaB8tkkhm4PkRs9L8FQ4FwgaQGbuh0rzjskzT1aIoLEHYcRbO3dAoEHaAiploH732yvQ1ojQyA23jWpRIX2jM57FEBCCT2V5x3jG0j/cbBDFTOdmQhXM3cAUiCpCZqRxH6XClTxMJwa5bcpiFc3foCmgCkJlpd5orUsaaLicieYII9EcWzt3BKxD00u7BJ9X3O9esIW24s4IfZNC3PgOFaloC1caVlpIz6mvuH5wCugHoby7Wdx3AbMcp/3B+3aMAVsN9qFuAWJuz3SgYx6GTU4Y/LBTjL6YAJg4OiyLJr6ubk69bgIqx2C7tLnOZbfihkSkwei/LQBy7J6HDE0lJ0uU1NXMqFB0078QMBkbp5rQ9WDh73YL8pkLsq1uBrbgRWbY+GNsi8x5CMa7sSEgwLt2+/RaPOk3dAlQ2ieDVXXV2+TfcZz266cd275OA+BBuhnXjiFooDf17MAz5AEpcnzWQbqvQwjzPPTjQZwUOvBupFm9teepJtI9/NBoNl2NIrrMaUd+PFT++sI2SJNpqa+dM6Q+eklfdAsRQWyJK4VLlwDvbXE+RUiLVcNZtGnMYi6zyiSRNA8iP1fei20/OiKL4jNGYMH7nztll6lqor3zpFiAzFtuj06gsr8dhPnsL8r6dwsKZi2WPNZYEU6ZIxPvRThxj4dHpkn8lJRkm1tTMfmrHjhmDeoTSPUAGAiVwskC9u1Gtlt2Vf+wiFq64t5YTn91pWjsiOTmDEHENHjuiapMOStlH+PJl4bHAum3bzK/UeRvIHzUAWUYAcn6bt+0gSuSyh6x0GAtX3BdeG3Xc4TQtMRJyNarVHep7+vSTZti1aOrU2ZNqay3vBGJj1AFUMolqdTh2By1vafMcsFk8Vv+Mr3eaPkP7OIMQyYKG8wv/+9pfkw7UFKtGjRoxrq7O8qKynihQm6ISIMssQF5MBXkjzknbVWg5msnCmetwplVdmmi+QhTEx1Gt6mSTDnmTEMOVtbWzH66szD7BbA3UjWqA3Zmm9CZKvB+gfSyxzWtK7Q6Hp7ictNtdpmeTkqVxRBTWob0J+NuujneofrRxB5F2Ltq5WbW1Mw8O9fP9vT82ACJ3aBtF/N2Nn09vwGPHI/7niL78zzHfOirT78Se8mtRGpUjiyPyArTvAe/hjAwzSt2craFONGYA9ghDz8Njx8rWJvenCyye3J7wsz4sstqH8dUbiSDdAWG/8b8fqmvELeOvBOOWGeigrCopmdwRqrjV8cQgwO7sZfgEuRrV6jYcmD6xO7TL43ClvT5sDJmAYaqnsdDqtP/9YK5R6t4xGKRfAdw9b745S+lphu0VywA7RUO1OoP6hP0Fc92r7/3diRS1kiUl5laslisWE4iySecN9b1A/AB3BKMot6KqzHrrrdz/BhLHUD8T8wDPCoJTAXE64MlTpxrwgyKLNuLUQLVQ9nLz11iEfLsoERxxTD5U3xuMH+BOYX5u2dixIyZgFKV8MJ8J1XviBOBZuZRTAvHo8YKr3VNfaPFk+4torzD/57JJpmuwWu5uQDnqf/+n18o0D3kVpXc8Bpz/UlqaHfFlIXEFsBsApVfKglyD0rjJZm36eXc4PJ2bdJzml0eNSMxAj3Vl/5t0yPuSJNyA6rIA8BrVcUTSr9v5wEiIgNKYT9p8uQD53MhEw1+VqSqWrrJJB/7H8LOxJYLg7VXlop27/+23Z21B6euer2Sfi7SLkSZ9vpTfhFB+ViBi1hGCmW6y1FGZ5tADmMHmOz6r0L7UUZZpUHkDBsn3FOU3XdfXW/QYxgH6UcFjx7Ver/xugcXtKLS2pPvd1t0lB9gnks5zRAtoW/tBDAQ8qedV4xxgnwDPBqKTk4wS+RfvCc8t53ibprc4QE3lDz5xDjB4DTWNgQPUVP7gE+cAg9dQ0xg4QE3lDz5xDjB4DTWNgQPUVP7gE+cAg9dQ0xg4QE3lDz5xDjB4DTWNgQPUVP7gE+cAg9dQ0xg4QE3lDz5xDjB4DTWNgQPUVP7gE+cAg9dQ0xg4QE3lDz5xDjB4DTWNgQPUVP7gE9ctQGNisoMfzzwwYN0CfKX8/O/48cxRDJCZzo9nZkr07eq2BPqbqz6eGUeIdO9h8H9fvF1HDUAFjHI8s6PSvGK4ZByH/Qt27GXQfHOJ1l+YqALIxCrZPNqDA+8WYFOlsodhDwuPRzcqATJQ9krTXoCcApA2bLPSbI8es0cLN6oBKoIpW8HsleYy4XxpPPzPAGTEd8lqAY6lGfUAWUYcjrRTKI1PSaI4ESA3sfBYd2MGIANVWmn6CiB/axDFbJTGj1h4rLoxB5CBAsi6SyeZJ+HAgkWoaFtYeKy5MQtQAdV1YMGLBnFYBn6DYjWq1rCclqTllyKmATJhSytTTjhc5ofwY81XAeQ2Fh4LblwAZKBKN5kPAORMSRBn42yXQyw8mt24AshAbXCZtgwbY/6FKJBH8BzyPQuPRjcuASqgSkpIh91lfs6YQHDONnkJf5qcIxrslyZuATLh1pebmvHYsZBQw2SUxl0sPFrcuAfIQNldqfU4Z3sqBgJuA8gjLFzvLgfoR2hDpWnj6AQTRnPEP6PH2up3W3eXHGAfSFaVk9P4+YLliYZEZXz1NZHgnEP+il4F/M8X1VNO/g8k+slcMVd8QwAAAABJRU5ErkJggg==;fontColor=#000000;" parent="1" vertex="1">
                    <mxGeometry x="320" y="-100" width="78" height="78" as="geometry"/>
                </mxCell>
                <mxCell id="15" style="edgeStyle=orthogonalEdgeStyle;rounded=0;orthogonalLoop=1;jettySize=auto;html=1;fontColor=#000000;" parent="1" source="16" target="17" edge="1">
                    <mxGeometry relative="1" as="geometry"/>
                </mxCell>
                <mxCell id="16" value="test_func.zip" style="image;html=1;image=img/lib/clip_art/general/Full_Folder_128x128.png;fontColor=#000000;labelBorderColor=none;labelBackgroundColor=none;" parent="1" vertex="1">
                    <mxGeometry x="490" y="60" width="80" height="80" as="geometry"/>
                </mxCell>
                <mxCell id="17" value="S3 Bucket" style="sketch=0;points=[[0,0,0],[0.25,0,0],[0.5,0,0],[0.75,0,0],[1,0,0],[0,1,0],[0.25,1,0],[0.5,1,0],[0.75,1,0],[1,1,0],[0,0.25,0],[0,0.5,0],[0,0.75,0],[1,0.25,0],[1,0.5,0],[1,0.75,0]];outlineConnect=0;fontColor=#000000;fillColor=#7AA116;strokeColor=#ffffff;dashed=0;verticalLabelPosition=bottom;verticalAlign=top;align=center;html=1;fontSize=12;fontStyle=0;aspect=fixed;shape=mxgraph.aws4.resourceIcon;resIcon=mxgraph.aws4.s3;" parent="1" vertex="1">
                    <mxGeometry x="650" y="61" width="78" height="78" as="geometry"/>
                </mxCell>
                <mxCell id="18" value="Lambda" style="sketch=0;points=[[0,0,0],[0.25,0,0],[0.5,0,0],[0.75,0,0],[1,0,0],[0,1,0],[0.25,1,0],[0.5,1,0],[0.75,1,0],[1,1,0],[0,0.25,0],[0,0.5,0],[0,0.75,0],[1,0.25,0],[1,0.5,0],[1,0.75,0]];outlineConnect=0;fontColor=#000000;fillColor=#ED7100;strokeColor=#ffffff;dashed=0;verticalLabelPosition=bottom;verticalAlign=top;align=center;html=1;fontSize=12;fontStyle=0;aspect=fixed;shape=mxgraph.aws4.resourceIcon;resIcon=mxgraph.aws4.lambda;" parent="1" vertex="1">
                    <mxGeometry x="650" y="-100" width="78" height="78" as="geometry"/>
                </mxCell>
                <mxCell id="19" style="edgeStyle=orthogonalEdgeStyle;rounded=0;orthogonalLoop=1;jettySize=auto;html=1;fontColor=#000000;" parent="1" source="20" target="16" edge="1">
                    <mxGeometry relative="1" as="geometry"/>
                </mxCell>
                <mxCell id="20" value="Packaging Script" style="sketch=0;aspect=fixed;pointerEvents=1;shadow=0;dashed=0;html=1;strokeColor=none;labelPosition=center;verticalLabelPosition=bottom;verticalAlign=top;align=center;fillColor=#00188D;shape=mxgraph.azure.script_file;fontColor=#000000;" parent="1" vertex="1">
                    <mxGeometry x="322.34000000000003" y="61" width="73.32" height="78" as="geometry"/>
                </mxCell>
                <mxCell id="21" style="rounded=0;orthogonalLoop=1;jettySize=auto;html=1;entryX=0;entryY=0;entryDx=0;entryDy=0;entryPerimeter=0;fontColor=#000000;" parent="1" source="14" target="17" edge="1">
                    <mxGeometry relative="1" as="geometry"/>
                </mxCell>
            </root>
        </mxGraphModel>
    </diagram>
</mxfile>